<svg height="465.29" width="722.91" xmlns="http://www.w3.org/2000/svg" xmlns:xlink="http://www.w3.org/1999/xlink"><clipPath id="a"><path d="m0 0h722.91v465.29h-722.91z"/></clipPath><clipPath id="b"><path d="m64.25 7.55h651.09v393.48h-651.09v-393.48"/></clipPath><g fill-rule="evenodd" stroke="#000" stroke-linecap="square" stroke-linejoin="bevel"><g clip-path="url(#a)"><path d="m64.25 7.55h651.09v393.48h-651.09v-393.48" fill="#fff" stroke-width=".66"/></g><g clip-path="url(#b)" fill="none"><g stroke-dasharray=".66 1.33" stroke-width=".66"><path d="m64.25 385.3h651.09m-651.09-15.74h651.09m-651.09-15.74h651.09m-651.09-15.74h651.09m-651.09-15.74h651.09m-651.09-15.74h651.09m-651.09-15.74h651.09m-651.09-15.73h651.09m-651.09-15.74h651.09m-651.09-15.74h651.09m-651.09-15.74h651.09m-651.09-15.74h651.09m-651.09-15.74h651.09m-651.09-15.74h651.09m-651.09-15.74h651.09m-651.09-15.74h651.09m-651.09-15.74h651.09m-651.09-15.74h651.09m-651.09-15.74h651.09m-651.09-15.74h651.09m-651.09-15.74h651.09m-651.09-15.74h651.09m-651.09-15.74h651.09m-651.09-15.74h651.09" stroke="#d3d3d3"/><path d="m64.25 322.34h651.09m-651.09-78.69h651.09m-651.09-78.7h651.09m-651.09-78.7h651.09" stroke="#808080"/><path d="m102.46 7.55v393.48m27.12-393.48v393.48m21.03-393.48v393.48m17.19-393.48v393.48m14.53-393.48v393.48m12.58-393.48v393.48m11.11-393.48v393.48m75.26-393.48v393.48m38.22-393.48v393.48m27.11-393.48v393.48m21.04-393.48v393.48m17.18-393.48v393.48m14.53-393.48v393.48m12.59-393.48v393.48m11.1-393.48v393.48m75.26-393.48v393.48m38.22-393.48v393.48m27.12-393.48v393.48m21.03-393.48v393.48m17.18-393.48v393.48m14.53-393.48v393.48m12.59-393.48v393.48m11.1-393.48v393.48" stroke="#d3d3d3"/><path d="m215.95 7.55v393.48m217.03-393.48v393.48m217.03-393.48v393.48" stroke="#808080"/></g><path d="m61.58 317.84.28-.03 3.32 1.79 4.11-2.59 3.08-.43 3.81-.42 3.27-.44 3.15-.48 3.06-.53 2.59-.41 3.23-.57 2.78-.48 2.37-.44 2.96-.67 2.56-.48 2.49-.51 2.42-.58 2.37-.58 2.3-.66 1.98-.46 2.47-.72 2.15-.63 2.1-.68 1.8-.47 2.27-.77 1.97-.74 1.92-.7 1.66-.53 2.32-.93 1.81-.69 1.56-.69 3.04-1.31 2.11-1.01 1.86-.85 1.43-.72 1.8-.9.98-.53 1.94-1.26 1.52-.71 1.69-1.02 1.47-.89 1.27-.77 1.08-.8 1.59-1.09 1.91-1.15 1.19-.97 1.35-.93 1.16-1.02.98-.73 1.78-1.49 1.12-1.04 1.41-1.02 1.24-1.2.77-.94 1.37-1.07 1.34-1.44 1.33-1.24 1.02-1.26 1.29-1.18 1.14-1.35.98-1.17.7-.71 1.64-2.2 2.16-2.64 1.06-1.45 1.05-1.5 1.03-1.54.64-1.13 1.02-1.11 1.38-2.32.99-1.64.99-1.54.97-1.72.96-1.75.95-1.85 1.06-1.88 1.74-3.05 1.03-2.2.79-2.05.9-1.73.89-2.05.77-2.04 1.09-2.21.76-1.89.43-1.26.85-1.41 1.27-3.94.83-2.36.93-2.36.82-2.2.61-2.36.8-2.68 1-2.52.7-2.36.39-2.04.29-.48 1.75-5.35.76-2.99.67-2.67.38-2.84.93-3.14.93-2.52.92-2.99.91-5.04.91-4.25 1.77-7.71.88-5.67.87-3.46.86-3.15.85-3.93.85-5.04.84-5.67.83-3.14.82-3.62.82-4.41.81-5.67.8-5.03.79-3.15.79-5.51.78-5.04.78-4.25.77-2.83.76-5.51.76-5.51.75-2.36 1.48-7.71.74-4.72.73-2.52.72-2.21.72-3.62.71-3.3.7-.79.7-2.83.7-2.05h.69l.69-2.67.68-.47.67-.95.67.47.67-.78.66 1.1.66-.32.65.48.65 1.73.64.31.64 2.36.63 3.78 1.26.63.62 4.72.62 1.73.61 2.99.61.95.61 3.3.6 2.99.6 2.21.6 3.14 1.17 4.88.59 3.15.58 5.51.57.79 1.15 6.92.56 4.1.57 4.72.56 3.3.55 4.41.55 1.26.55 4.41.55 2.83.54 3.93.54.63.54 5.04 1.07 6.14.52 2.04 1.57 9.29.52 2.83.51 4.1 1.02 4.72.51 1.73.5 4.72 1 4.25.98 5.82.49 1.26.49 4.73.48-.48.49 1.26 1.43 8.03.47.79.47 3.77.93 3.62.93 3.31.46 1.89.91 3.62.9 4.41.45.31.44 3.62h.45l1.31 2.83.44 4.25.86 1.89.43 1.73.43.16.43 2.83.42.16.42 2.83.42.48.84 2.67 1.23 2.83.82 2.7 2.01 4.72.79 1.23.4 1.88.78 2.22.39.37.77 1.79.38.55.77 2.02.75 1.73.38.75.37-.06.38 1.72.37.14 1.47 2.69.37 1.1 1.08 1.76.36.44.71 1.39.71 1.05.36.7 1.05 1.55 1.03 1.72 1.71 2.79.33.2.68.93.33.55.99 1.18.99 1.37.97 1.34.32-.13.64 1.15.32.3.95 1.16 1.88 1.94.3 1.12.62.25.3-.17.31.61.6.57.91.99.3-.02.59.63.3.55.29-.08.88.79.29.32.29.28.29.38.29.04.29.22 1.42 1.25.29.82.28-.19.56.25.28.13.56.69.27.03.28.16.82.69 1.09.77.8.6.27.12.27-.07.79.7 1.83 1.09.26.39.77.4.26-.05.51.65h.25l.26-.05.5.3.5.25 1 .64.24-.09.5.6.24-.08.49.27.49.33.24-.02.24-.16.24.49 1.43.55.94.46 1.17.49 1.15.41.23.12.68.24.23-.02.45.4.22-.1.23.08.89.52.22-.09 1.54.8.21-.24.22.1.65.3.43-.08.42.45.43-.03.85.27.21.02.21.09 1.04.22.2.05.42.19.41.03.2-.03.61.48.21-.19.2.05 1.4.55.2.3.2-.49.2.24.39.05.4-.03.19.04.4.33.19-.12.2.01.38.04.39.34.19-.01.19-.21.39.13.38.31.19-.27.38.1.38.23.18.05.38-.17.19.11.18.25.56-.13.19-.06.92.6.73-.2.18-.13.36.24.55-.02.18.03.71.35.36-.21.35.21.53-.11.35.17.52.22.18-.24.17-.11.35.15.52.14.17-.1.34.32.51-.21h.34l.51.18 1.01.06h.33l.17-.06.33.11.16.01h.33l.33.14.49-.03.33-.01.16.11.64-.18.33.16.48.25.32-.23.16-.02.31.11.63.02h.32l.78.03.31.01.62.35.76-.31.31.06.61.13.3-.18.3-.01.6.11.3-.04.89.02.29.02.88-.05h.29l.72.05.29.01h.57l.29-.08 1.27.32.28-.24.42-.01.97-.02.28-.09.68.15.28-.15.68.14.27-.11 1.07-.05.26-.09.4.07.27-.03.39-.04.66-.05.39.03 1.67-.11.39.08.25.05.38-.16.38-.11.75.01.37.08.62-.14.37-.09.74-.02.73-.14.36.16.36-.18.36.1.48-.13 1.07.14.35-.25.35-.05.47.02.35-.16h.34l.81-.04.34-.08.8-.08.45.08.34-.02.44-.19.34.03.44-.09.44-.06.33-.02.44-.11.44.03.76.16.43-.46.43.03.85-.03.42-.08h.42l.42-.07h.42l.42-.18.41.07.93-.21.81-.11.5-.05.41-.14.4-.03.89-.06.99-.22.88-.22.48.01.39-.17.48-.03.47-.02.48-.17.47.01.94-.22.93-.18.92-.18.91.1.9-.46.89-.24.89-.15h.87l.87-.27.86-.11.86-.28.84.09.84-.5.83-.13.82-.22.82-.19.81-.27.8-.17.8-.2.78-.22.79-.29.77-.03.77-.41.77-.05.75-.29.75-.13.75-.19.74-.3.73-.33.73-.01.72-.41.72-.4.71-.12h.71l.7-.96.69-.22.69-.51.69-.74.68.13.67-.46.68-.11.66-.12.66-.04.66.12.65.18.65.07.64.03.64.03.64-.14.63-.24 1.25.05.61-.27.62-.16.61-.12.6-.3.61-.28 1.19-.07 1.18-.75 1.16-.24.58-.16.57-.36 1.14-.33.56-.22.56-.19 1.11-.31.55-.35 1.09.03.54-.67 1.07-.02 1.06-.33.52-.39 1.04-.33.52-.29 1.02-.19 1.02-.47 1-.6.5.05.99-.94.97-.35.97-.36.96-.44.94-.22.94-.21.93-.2.92-.32.91-.01 1.35-.68.89-.44.88-.43.87-.64 1.3-.43.85-.39 1.26-.39.84-.13 1.24-.75 1.22-.49.8-.54 1.2-.56 1.18-.49 1.17-.47 1.15-.3 1.14-.79 1.12-.31 1.11-.48 1.46-.44 1.08-.55 1.43-.53 1.05-.21 1.39-1.12 1.36-.59 1.35-.79 1.33-.72 1.31-.84 1.29-.71 1.59-1.37 1.25-.69 1.54-1.05 1.22-.87 1.5-1.27 1.76-.67 1.45-1.47 1.43-.65 1.68-.8 1.65-.68 1.63-.55 1.6-1.42 1.83-.88 1.54-.75 1.76-.6 1.98-.36 1.7-.84 1.91-.72 1.86-.88 2.06-.96 2.01-1.14 1.97-.99 1.93-1.24 2.31-1.04 2.05-1.61 2.2-1.35 2.35-1.7 2.29-1.59 2.42-1.72 2.36-1.85 2.65-1.78 2.58-2.36 2.5-1.89 2.77-1.89 2.84-2.36 2.91-1.89 2.97-1.73 3.16-2.2 3.2-1.42 3.22-2.36 3.5-2.99 3.5-2.68 3.72-3.62 3.81-3.46 4.1-3.78 4.13-3.78 4.36-4.24 4.63-3.94 4.6-4.88 5.24-4.88 5.76-5.35 5.44-6.14 5.84-6.45 6.84-5.98 6.98-7.87 7.64-11.02 8.11-9.13 8.89-4.56 2.66-4.1" stroke="#e41a1c" stroke-width="2.66"/></g><g clip-path="url(#a)"><g fill="none" stroke-linecap="butt" stroke-width=".66"><path d="m64.25 401.04v-393.48"/><path d="m64.25 401.04h4m-4-15.74h4m-4-15.74h4m-4-15.74h4m-4-15.74h4m-4-15.74h4m-4-15.74h4m-4-15.74h4m-4-15.73h4m-4-15.74h4m-4-15.74h4m-4-15.74h4m-4-15.74h4m-4-15.74h4m-4-15.74h4m-4-15.74h4m-4-15.74h4m-4-15.74h4m-4-15.74h4m-4-15.74h4m-4-15.74h4m-4-15.74h4m-4-15.74h4m-4-15.74h4m-4-15.74h4m-4-15.74h4"/><path d="m64.25 401.04h8m-8-78.7h8m-8-78.69h8m-8-78.7h8m-8-78.7h8m-8-78.7h8"/></g><g fill="#000" font-family="Times New Roman" font-size="18.666667" stroke="none" stroke-width=".1"><g transform="matrix(0 -1 1 0 26.25 259.75)"><text textLength="96.5" xml:space="preserve">Impedance / </text><text textLength="14.4" x="96.5">Ω</text></g><g><text textLength="9.4" x="49.85" y="407.44">0</text><text textLength="9.4" x="49.85" y="328.74">5</text><text textLength="18.8" x="40.45" y="250.05">10</text><text textLength="18.8" x="40.45" y="171.35">15</text><text textLength="18.8" x="40.45" y="92.65">20</text><text textLength="18.8" x="40.45" y="16.98">25</text></g></g><g fill="none" stroke-linecap="butt" stroke-width=".66"><path d="m64.25 401.04h651.09"/><path d="m64.25 401.04v-4m38.21 4v-4m27.12 4v-4m21.03 4v-4m17.19 4v-4m14.53 4v-4m12.58 4v-4m11.11 4v-4m75.26 4v-4m38.22 4v-4m27.11 4v-4m21.04 4v-4m17.18 4v-4m14.53 4v-4m12.59 4v-4m11.1 4v-4m75.26 4v-4m38.22 4v-4m27.12 4v-4m21.03 4v-4m17.18 4v-4m14.53 4v-4m12.59 4v-4m11.1 4v-4m75.27 4v-4"/><path d="m215.95 401.04v-8m217.03 8v-8m217.03 8v-8"/></g><g fill="#000" font-family="Times New Roman" stroke="none" stroke-width=".1"><g font-size="18.666667"><text textLength="115.5" x="332.05" y="449.44">Frequency / Hz</text><text textLength="28.2" x="201.85" y="422.74">100</text><text textLength="37.6" x="414.18" y="422.74">1000</text><text textLength="18.8" x="637.81" y="422.74">10</text></g><text font-size="11.2" textLength="5.6" x="656.61" y="414.38">4</text></g><g fill="none" stroke-linecap="butt" stroke-width=".66"><path d="m715.35 401.04v-393.48"/><path d="m715.35 401.04h-4m4-15.74h-4m4-15.74h-4m4-15.74h-4m4-15.74h-4m4-15.74h-4m4-15.74h-4m4-15.74h-4m4-15.73h-4m4-15.74h-4m4-15.74h-4m4-15.74h-4m4-15.74h-4m4-15.74h-4m4-15.74h-4m4-15.74h-4m4-15.74h-4m4-15.74h-4m4-15.74h-4m4-15.74h-4m4-15.74h-4m4-15.74h-4m4-15.74h-4m4-15.74h-4m4-15.74h-4m4-15.74h-4"/><path d="m715.35 401.04h-8m8-78.7h-8m8-78.69h-8m8-78.7h-8m8-78.7h-8m8-78.7h-8"/><path d="m64.25 7.55h651.09"/><path d="m64.25 7.55v4m38.21-4v4m27.12-4v4m21.03-4v4m17.19-4v4m14.53-4v4m12.58-4v4m11.11-4v4m75.26-4v4m38.22-4v4m27.11-4v4m21.04-4v4m17.18-4v4m14.53-4v4m12.59-4v4m11.1-4v4m75.26-4v4m38.22-4v4m27.12-4v4m21.03-4v4m17.18-4v4m14.53-4v4m12.59-4v4m11.1-4v4m75.27-4v4"/><path d="m215.95 7.55v8m217.03-8v8m217.03-8v8"/></g></g></g></svg>