<svg height="10cm" viewBox="0 0 39000 23000" width="15cm" xmlns="http://www.w3.org/2000/svg"><g stroke-linecap="round" stroke-linejoin="round" stroke-width="60"><g fill-opacity="0"><g stroke="#000"><g fill="#840000" fill-opacity="1" fill-rule="evenodd" stroke="#840000" stroke-width="60"><path d="m3500 13500v-4000"/><path d="m3000 9500 500-1000 500 1000"/></g><circle cx="6000" cy="11000" fill="none" r="2000" stroke="#840000" stroke-width="60"/><g fill="#840000" fill-opacity="0" stroke="#840000" stroke-width="62.519685"><text font-size="666.653543" lengthAdjust="spacingAndGlyphs" opacity="0" text-anchor="middle" textLength="488.582677" x="2800" y="11350">V</text><path d="m2633 10826 167 500 166-500"/></g><g stroke-width="60"><path d="m6000 9000v-1000" fill="none" stroke="#840000"/><g fill="#006464" fill-opacity="0" stroke="#006464"><text font-size="666.653543" lengthAdjust="spacingAndGlyphs" opacity="0" text-anchor="end" textLength="991.102362" transform="matrix(0 -1 1 0 -3400 15400)" x="6000" y="9650">E1</text><path d="m5964 10239v-167"/><path d="m6226 10001v238h-500v-238"/><path d="m6226 9525v285"/><path d="m6226 9668h-500l71 47 48 48 24 47"/></g><g fill="#a90000" fill-opacity="0" stroke="#a90000"><text font-size="666.653543" lengthAdjust="spacingAndGlyphs" opacity="0" text-anchor="middle" textLength="536.181102" transform="matrix(0 -1 1 0 -2600 14400)" x="5900" y="8500">1</text><path d="m5876 8357v285"/><path d="m5876 8500h-500l71 47 48 48 24 47"/></g><path d="m6000 13000v1000" fill="none" stroke="#840000"/><g fill="#006464" fill-opacity="0" stroke="#006464"><text font-size="666.653543" lengthAdjust="spacingAndGlyphs" opacity="0" textLength="988.582677" transform="matrix(0 -1 1 0 -6600 18600)" x="6000" y="12850">E2</text><path d="m5964 12450v-166"/><path d="m6226 12212v238h-500v-238"/><path d="m5773 12022-23-24-24-48v-119l24-47 23-24 48-24h48l71 24 286 286v-310"/></g><g fill="#a90000" fill-opacity="0" stroke="#a90000"><text font-size="666.653543" lengthAdjust="spacingAndGlyphs" opacity="0" text-anchor="middle" textLength="536.181102" transform="matrix(0 -1 1 0 -7600 19400)" x="5900" y="13500">2</text><path d="m5423 13642-23-23-24-48v-119l24-48 23-24 48-23h48l71 23 286 286v-309"/></g><g fill="#006464" fill-opacity="0" stroke="#006464"><text font-size="666.653543" lengthAdjust="spacingAndGlyphs" opacity="0" text-anchor="middle" textLength="988.582677" x="8995.551181" y="10749.92126">AC</text><path d="m8626 10583h238"/><path d="m8578 10726 167-500 167 500"/><path d="m9364 10678-24 24-71 24h-48l-71-24-48-48-24-47-23-96v-71l23-95 24-48 48-48 71-23h48l71 23 24 24"/><text font-size="666.653543" lengthAdjust="spacingAndGlyphs" opacity="0" text-anchor="middle" textLength="6393.346457" x="11697.913386" y="11749.92126">Signal Generator</text><path d="m8626 11702 71 24h119l48-24 24-24 24-48v-47l-24-48-24-24-48-24-95-23-47-24-24-24-24-48v-47l24-48 24-24 47-23h119l72 23"/><path d="m9126 11726v-334"/><path d="m9126 11226-24 23 24 24 24-24-24-23v47"/><path d="m9578 11392v405l-23 48-24 23-48 24h-71l-48-24"/><path d="m9578 11702-47 24h-96l-47-24-24-24-24-48v-143l24-47 24-24 47-24h96l47 24"/><path d="m9816 11392v334"/><path d="m9816 11440 24-24 48-24h71l48 24 24 48v262"/><path d="m10483 11726v-262l-24-48-47-24h-96l-47 24"/><path d="m10483 11702-48 24h-119l-47-24-24-48v-47l24-48 47-24h119l48-24"/><path d="m10793 11726-48-24-24-48v-428"/><path d="m11626 11249-48-23h-71l-72 23-47 48-24 48-24 95v71l24 96 24 47 47 48 72 24h48l71-24 24-24v-167h-95"/><path d="m12055 11702-48 24h-95l-48-24-24-48v-190l24-48 48-24h95l48 24 23 48v47l-238 48"/><path d="m12293 11392v334"/><path d="m12293 11440 23-24 48-24h71l48 24 24 48v262"/><path d="m12935 11702-47 24h-95l-48-24-24-48v-190l24-48 48-24h95l47 24 24 48v47l-238 48"/><path d="m13174 11726v-334"/><path d="m13174 11487 23-47 24-24 48-24h47"/><path d="m13697 11726v-262l-23-48-48-24h-95l-48 24"/><path d="m13697 11702-47 24h-119l-48-24-24-48v-47l24-48 48-24h119l47-24"/><path d="m13864 11392h191"/><path d="m13935 11226v428l24 48 48 24h48"/><path d="m14293 11726-48-24-24-24-24-48v-143l24-47 24-24 48-24h71l48 24 23 24 24 47v143l-24 48-23 24-48 24z"/><path d="m14674 11726v-334"/><path d="m14674 11487 23-47 24-24 48-24h47"/></g></g></g><g fill="#006464" stroke="#006464"><g stroke="#840000"><g fill="#840000" fill-opacity="0" stroke-width="100"><path d="m26099.999772 14299.738201a150 150 0 0 0 -299.999544 0"/><path d="m26200.000228 14700.261799a150 150 0 0 0 299.999544 0"/><g fill="none" stroke="#840000" stroke-linecap="round" stroke-linejoin="round" stroke-width="100"><path d="m25800 14300-50 200"/><path d="m26100 14300 100 400"/><path d="m26500 14700 100-400"/><path d="m26900 14300 100 400"/><path d="m27300 14700 50-200"/></g><path d="m26899.999772 14299.738201a150 150 0 0 0 -299.999544 0"/><path d="m27000.000228 14700.261799a150 150 0 0 0 299.999544 0"/></g><g fill="none" fill-opacity="0" stroke-width="60"><path d="m26600 13000h200"/><path d="m26700 12900v200"/></g><circle cx="26500" cy="14500" fill="none" r="1000" stroke-width="100"/><g fill="#840000" fill-opacity="0" stroke-width="60"><path d="m26500 15500v1000"/><path d="m26500 13500v-1000"/></g></g><g fill="#006464" fill-opacity="0" stroke="#006464" stroke-width="60"><text font-size="666.653543" lengthAdjust="spacingAndGlyphs" opacity="0" text-anchor="middle" textLength="4798.110236" x="30400.314961" y="13974.92126">Oscilloscope</text><path d="m28245 13451h95l48 23 48 48 23 95v167l-23 95-48 48-48 24h-95l-48-24-47-48-24-95v-167l24-95 47-48z"/><path d="m28650 13927 47 24h96l47-24 24-48v-24l-24-47-47-24h-72l-47-24-24-48v-23l24-48 47-24h72l47 24"/><path d="m29293 13927-48 24h-95l-48-24-24-24-23-48v-143l23-47 24-24 48-24h95l48 24"/><path d="m29507 13951v-334"/><path d="m29507 13451-24 23 24 24 24-24-24-23v47"/><path d="m29816 13951-47-24-24-48v-428"/><path d="m30078 13951-47-24-24-48v-428"/><path d="m30340 13951-47-24-24-24-24-48v-143l24-47 24-24 47-24h72l47 24 24 24 24 47v143l-24 48-24 24-47 24z"/><path d="m30697 13927 48 24h95l48-24 24-48v-24l-24-47-48-24h-71l-48-24-24-48v-23l24-48 48-24h71l48 24"/><path d="m31340 13927-47 24h-96l-47-24-24-24-24-48v-143l24-47 24-24 47-24h96l47 24"/><path d="m31626 13951-48-24-23-24-24-48v-143l24-47 23-24 48-24h71l48 24 24 24 24 47v143l-24 48-24 24-48 24z"/><path d="m32007 13617v500"/><path d="m32007 13641 48-24h95l47 24 24 24 24 47v143l-24 48-24 24-47 24h-95l-48-24"/><path d="m32650 13927-48 24h-95l-48-24-23-48v-190l23-48 48-24h95l48 24 24 48v47l-238 48"/><text font-size="666.653543" lengthAdjust="spacingAndGlyphs" opacity="0" text-anchor="middle" textLength="3869.527559" x="29936.023622" y="14974.92126">Channel A</text><path d="m28436 14903-24 24-72 24h-47l-72-24-47-48-24-47-24-96v-71l24-95 24-48 47-48 72-23h47l72 23 24 24"/><path d="m28650 14951v-500"/><path d="m28864 14951v-262l-24-48-47-24h-72l-47 24-24 24"/><path d="m29316 14951v-262l-23-48-48-24h-95l-48 24"/><path d="m29316 14927-47 24h-119l-48-24-24-48v-47l24-48 48-24h119l47-24"/><path d="m29555 14617v334"/><path d="m29555 14665 23-24 48-24h71l48 24 24 48v262"/><path d="m30007 14617v334"/><path d="m30007 14665 24-24 47-24h72l47 24 24 48v262"/><path d="m30650 14927-48 24h-95l-48-24-23-48v-190l23-48 48-24h95l48 24 24 48v47l-238 48"/><path d="m30959 14951-47-24-24-48v-428"/><path d="m31507 14808h238"/><path d="m31459 14951 167-500 167 500"/></g></g><g fill="#006464" stroke="#006464"><g fill="#840000" fill-opacity="0" stroke="#840000" stroke-width="100"><path d="m18000 8000h1400v2000h-1400z"/><path d="m19400 8000 1000-1000v4000l-1000-1000" fill="none" stroke="#840000" stroke-linecap="round" stroke-linejoin="round" stroke-width="100"/></g><g stroke-width="60"><path d="m18000 8500h-1000" fill="none" stroke="#840000"/><g fill="#a90000" fill-opacity="0" stroke="#a90000"><text font-size="666.653543" lengthAdjust="spacingAndGlyphs" opacity="0" text-anchor="middle" textLength="536.181102" x="17500" y="9100">1</text><path d="m17642 9076h-285"/><path d="m17500 9076v-500l-48 71-48 48-47 24"/></g><path d="m18000 9500h-1000" fill="none" stroke="#840000"/><g fill="#a90000" fill-opacity="0" stroke="#a90000"><text font-size="666.653543" lengthAdjust="spacingAndGlyphs" opacity="0" text-anchor="middle" textLength="536.181102" x="17500" y="10100">2</text><path d="m17357 9623 23-23 48-24h119l48 24 24 23 23 48v48l-23 71-286 286h309"/></g><g fill="#006464" fill-opacity="0" stroke="#006464"><text font-size="666.653543" lengthAdjust="spacingAndGlyphs" opacity="0" text-anchor="middle" textLength="536.181102" x="21269.330709" y="8749.92126">Z</text><path d="m21102 8226h333l-333 500h333"/><text font-size="666.653543" lengthAdjust="spacingAndGlyphs" opacity="0" text-anchor="middle" textLength="7702.874016" x="24852.677165" y="9749.92126">Unknown Impedance</text><path d="m21150 9226v404l24 48 23 24 48 24h95l48-24 24-24 23-48v-404"/><path d="m21674 9392v334"/><path d="m21674 9440 23-24 48-24h71l48 24 24 48v262"/><path d="m22126 9726v-500"/><path d="m22174 9535 142 191"/><path d="m22316 9392-190 191"/><path d="m22531 9392v334"/><path d="m22531 9440 24-24 47-24h72l47 24 24 48v262"/><path d="m23055 9726-48-24-24-24-24-48v-143l24-47 24-24 48-24h71l48 24 23 24 24 47v143l-24 48-23 24-48 24z"/><path d="m23388 9392 95 334 95-239 96 239 95-334"/><path d="m23959 9392v334"/><path d="m23959 9440 24-24 48-24h71l48 24 24 48v262"/><path d="m24793 9726v-500"/><path d="m25031 9726v-334"/><path d="m25031 9440 24-24 47-24h72l47 24 24 48v262"/><path d="m25245 9464 24-48 47-24h72l47 24 24 48v262"/><path d="m25697 9392v500"/><path d="m25697 9416 48-24h95l48 24 24 24 23 47v143l-23 48-24 24-48 24h-95l-48-24"/><path d="m26340 9702-47 24h-96l-47-24-24-48v-190l24-48 47-24h96l47 24 24 48v47l-238 48"/><path d="m26793 9726v-500"/><path d="m26793 9702-48 24h-95l-48-24-24-24-23-48v-143l23-47 24-24 48-24h95l48 24"/><path d="m27245 9726v-262l-24-48-47-24h-96l-47 24"/><path d="m27245 9702-48 24h-119l-47-24-24-48v-47l24-48 47-24h119l48-24"/><path d="m27483 9392v334"/><path d="m27483 9440 24-24 48-24h71l48 24 23 48v262"/><path d="m28150 9702-48 24h-95l-48-24-24-24-23-48v-143l23-47 24-24 48-24h95l48 24"/><path d="m28555 9702-48 24h-95l-48-24-24-48v-190l24-48 48-24h95l48 24 23 48v47l-238 48"/></g></g></g><g fill="#006464" stroke="#006464"><g stroke="#840000"><g fill="#840000" fill-opacity="0" stroke-width="100"><path d="m30099.999772 9299.738201a150 150 0 0 0 -299.999544 0"/><path d="m30200.000228 9700.261799a150 150 0 0 0 299.999544 0"/><g fill="none" stroke="#840000" stroke-linecap="round" stroke-linejoin="round" stroke-width="100"><path d="m29800 9300-50 200"/><path d="m30100 9300 100 400"/><path d="m30500 9700 100-400"/><path d="m30900 9300 100 400"/><path d="m31300 9700 50-200"/></g><path d="m30899.999772 9299.738201a150 150 0 0 0 -299.999544 0"/><path d="m31000.000228 9700.261799a150 150 0 0 0 299.999544 0"/></g><g fill="none" fill-opacity="0" stroke-width="60"><path d="m30600 8000h200"/><path d="m30700 7900v200"/></g><circle cx="30500" cy="9500" fill="none" r="1000" stroke-width="100"/><g fill="#840000" fill-opacity="0" stroke-width="60"><path d="m30500 10500v1000"/><path d="m30500 8500v-1000"/></g></g><g fill="#006464" fill-opacity="0" stroke="#006464" stroke-width="60"><text font-size="666.653543" lengthAdjust="spacingAndGlyphs" opacity="0" text-anchor="middle" textLength="4798.110236" x="34400.314961" y="8974.92126">Oscilloscope</text><path d="m32245 8451h95l48 23 48 48 23 95v167l-23 95-48 48-48 24h-95l-48-24-47-48-24-95v-167l24-95 47-48z"/><path d="m32650 8927 47 24h96l47-24 24-48v-24l-24-47-47-24h-72l-47-24-24-48v-23l24-48 47-24h72l47 24"/><path d="m33293 8927-48 24h-95l-48-24-24-24-23-48v-143l23-47 24-24 48-24h95l48 24"/><path d="m33507 8951v-334"/><path d="m33507 8451-24 23 24 24 24-24-24-23v47"/><path d="m33816 8951-47-24-24-48v-428"/><path d="m34078 8951-47-24-24-48v-428"/><path d="m34340 8951-47-24-24-24-24-48v-143l24-47 24-24 47-24h72l47 24 24 24 24 47v143l-24 48-24 24-47 24z"/><path d="m34697 8927 48 24h95l48-24 24-48v-24l-24-47-48-24h-71l-48-24-24-48v-23l24-48 48-24h71l48 24"/><path d="m35340 8927-47 24h-96l-47-24-24-24-24-48v-143l24-47 24-24 47-24h96l47 24"/><path d="m35626 8951-48-24-23-24-24-48v-143l24-47 23-24 48-24h71l48 24 24 24 24 47v143l-24 48-24 24-48 24z"/><path d="m36007 8617v500"/><path d="m36007 8641 48-24h95l47 24 24 24 24 47v143l-24 48-24 24-47 24h-95l-48-24"/><path d="m36650 8927-48 24h-95l-48-24-23-48v-190l23-48 48-24h95l48 24 24 48v47l-238 48"/><text font-size="666.653543" lengthAdjust="spacingAndGlyphs" opacity="0" text-anchor="middle" textLength="3940.944882" x="33971.732283" y="9974.92126">Channel B</text><path d="m32435 9903-23 24-72 24h-47l-72-24-47-48-24-47-24-96v-71l24-95 24-48 47-48 72-23h47l72 23 23 24"/><path d="m32650 9951v-500"/><path d="m32864 9951v-262l-24-48-47-24h-72l-47 24-24 24"/><path d="m33316 9951v-262l-23-48-48-24h-95l-48 24"/><path d="m33316 9927-47 24h-119l-48-24-24-48v-47l24-48 48-24h119l47-24"/><path d="m33555 9617v334"/><path d="m33555 9665 23-24 48-24h71l48 24 24 48v262"/><path d="m34007 9617v334"/><path d="m34007 9665 24-24 47-24h72l47 24 24 48v262"/><path d="m34650 9927-48 24h-95l-48-24-24-48v-190l24-48 48-24h95l48 24 24 48v47l-239 48"/><path d="m34959 9951-47-24-24-48v-428"/><path d="m35697 9689 72 23 24 24 23 48v71l-23 48-24 24-48 24h-190v-500h166l48 23 24 24 24 48v47l-24 48-24 24-48 24h-166"/></g></g><g fill="#006464" stroke="#006464"><path d="m17000 18500v500h500l-500 500-500-500h500" fill="none" stroke="#840000"/><g fill="#006464" fill-opacity="0" stroke="#006464"><text font-size="666.653543" lengthAdjust="spacingAndGlyphs" opacity="0" text-anchor="middle" textLength="1583.818898" x="17000" y="20749.96063">GND</text><path d="m16619 20249-48-23h-71l-72 23-48 48-23 48-24 95v71l24 96 23 47 48 48 72 24h47l72-24 23-24v-167h-95"/><path d="m16857 20726v-500l285 500v-500"/><path d="m17380 20726v-500h120l71 23 48 48 23 48 24 95v71l-24 96-23 47-48 48-71 24z"/></g></g><g fill="#006464" stroke="#006464"><path d="m16600 13500h800v2000h-800z" fill="none" stroke="#840000" stroke-width="100"/><g fill-opacity="0" stroke-width="60"><g fill="#840000" stroke="#840000"><path d="m17000 13500v-500"/><path d="m17000 15500v500"/></g><g fill="#006464" stroke="#006464"><text font-size="666.653543" lengthAdjust="spacingAndGlyphs" opacity="0" text-anchor="middle" textLength="560.000000" x="18281.259843" y="14249.92126">R</text><path d="m18435 14226-166-239"/><path d="m18150 14226v-500h190l48 23 24 24 23 48v71l-23 48-24 24-48 23h-190"/><text font-size="666.653543" lengthAdjust="spacingAndGlyphs" opacity="0" text-anchor="middle" textLength="6845.708661" x="21424.094488" y="15249.92126">Known Resistance</text><path d="m18150 15226v-500"/><path d="m18435 15226-214-286"/><path d="m18435 14726-285 285"/><path d="m18650 14892v334"/><path d="m18650 14940 24-24 47-24h72l47 24 24 48v262"/><path d="m19174 15226-48-24-24-24-24-48v-143l24-47 24-24 48-24h71l48 24 23 24 24 47v143l-24 48-23 24-48 24z"/><path d="m19507 14892 95 334 95-239 96 239 95-334"/><path d="m20078 14892v334"/><path d="m20078 14940 24-24 48-24h71l48 24 24 48v262"/><path d="m21197 15226-166-239"/><path d="m20912 15226v-500h190l48 23 24 24 23 48v71l-23 48-24 24-48 23h-190"/><path d="m21602 15202-47 24h-96l-47-24-24-48v-190l24-48 47-24h96l47 24 24 48v47l-238 48"/><path d="m21816 15202 48 24h95l48-24 24-48v-24l-24-47-48-24h-71l-48-24-24-48v-23l24-48 48-24h71l48 24"/><path d="m22245 15226v-334"/><path d="m22245 14726-24 23 24 24 24-24-24-23v47"/><path d="m22459 15202 48 24h95l48-24 24-48v-24l-24-47-48-24h-71l-48-24-24-48v-23l24-48 48-24h71l48 24"/><path d="m22816 14892h191"/><path d="m22888 14726v428l24 48 47 24h48"/><path d="m23388 15226v-262l-24-48-48-24h-95l-47 24"/><path d="m23388 15202-48 24h-119l-47-24-24-48v-47l24-48 47-24h119l48-24"/><path d="m23626 14892v334"/><path d="m23626 14940 24-24 47-24h72l47 24 24 48v262"/><path d="m24293 15202-48 24h-95l-48-24-24-24-23-48v-143l23-47 24-24 48-24h95l48 24"/><path d="m24697 15202-47 24h-95l-48-24-24-48v-190l24-48 48-24h95l47 24 24 48v47l-238 48"/></g></g></g><g fill="#009600" stroke="#009600"><path d="m17000 17000v1500"/><path d="m17000 17000h-11000"/><path d="m6000 17000v-3000"/><path d="m17000 6000h-11000"/><path d="m6000 6000v2000"/><path d="m17000 9500v2500"/><path d="m26500 17000h4000"/><path d="m26500 16500v500"/><path d="m26500 12000h-9500"/><path d="m30500 11500v5500"/><path d="m30500 6000v1500"/><path d="m30500 6000h-13500"/><path d="m17000 6000v2500"/><path d="m26500 12500v-500"/><path d="m17000 16000v1000"/><path d="m17000 17000h9500"/><path d="m17000 12000v1000"/></g></g><g fill="#009600" stroke="#009600"><circle cx="26500" cy="17000" r="180"/><circle cx="17000" cy="6000" r="180"/><circle cx="17000" cy="12000" r="180"/><circle cx="17000" cy="17000" r="180"/></g></g></svg>